<svg width="22" height="22" viewBox="0 0 22 22" fill="none" xmlns="http://www.w3.org/2000/svg">
<path d="M10.9999 15.7999V15.8421M8.60094 8.04523C8.60094 6.69471 9.67546 5.5999 11.0009 5.5999C12.3264 5.5999 13.4009 6.69471 13.4009 8.04523C13.4009 9.39575 12.3264 10.4906 11.0009 10.4906C11.0009 10.4906 10.9999 11.2204 10.9999 12.1208M20.5999 4.9999L20.5999 17C20.5999 18.9882 18.9881 20.6 16.9999 20.6H4.9999C3.01168 20.6 1.3999 18.9882 1.3999 17V4.9999C1.3999 3.01168 3.01168 1.3999 4.9999 1.3999H16.9999C18.9881 1.3999 20.5999 3.01168 20.5999 4.9999Z" stroke="#D2D1D5" stroke-width="2" stroke-linecap="round" stroke-linejoin="round"/>
</svg>
