<svg width="22" height="22" viewBox="0 0 22 22" fill="none" xmlns="http://www.w3.org/2000/svg">
<path d="M13.9504 14.3486C14.4744 14.5232 15.0407 14.2401 15.2153 13.7161C15.39 13.1922 15.1068 12.6259 14.5829 12.4512L13.9504 14.3486ZM10.6666 12.1999H9.66665C9.66665 12.6303 9.94208 13.0125 10.3504 13.1486L10.6666 12.1999ZM11.6666 7.18216C11.6666 6.62988 11.2189 6.18216 10.6666 6.18216C10.1144 6.18216 9.66665 6.62988 9.66665 7.18216H11.6666ZM14.5829 12.4512L10.9829 11.2512L10.3504 13.1486L13.9504 14.3486L14.5829 12.4512ZM11.6666 12.1999V7.18216H9.66665V12.1999H11.6666ZM19.2666 10.9999C19.2666 15.7495 15.4163 19.5999 10.6666 19.5999V21.5999C16.5209 21.5999 21.2666 16.8541 21.2666 10.9999H19.2666ZM10.6666 19.5999C5.917 19.5999 2.06665 15.7495 2.06665 10.9999H0.0666504C0.0666504 16.8541 4.81243 21.5999 10.6666 21.5999V19.5999ZM2.06665 10.9999C2.06665 6.25025 5.917 2.3999 10.6666 2.3999V0.399902C4.81243 0.399902 0.0666504 5.14568 0.0666504 10.9999H2.06665ZM10.6666 2.3999C15.4163 2.3999 19.2666 6.25025 19.2666 10.9999H21.2666C21.2666 5.14568 16.5209 0.399902 10.6666 0.399902V2.3999Z" fill="#D2D1D5"/>
</svg>
