<svg width="76" height="159" viewBox="0 0 76 159" fill="none" xmlns="http://www.w3.org/2000/svg">
<path d="M10.0356 86.2456C4.40281 79.904 4.6976 70.2687 10.7075 64.2834L75.1 0.153794C75.1989 0.0552987 75.3328 8.98335e-07 75.4724 8.99999e-07C75.7638 9.03474e-07 76 0.236237 76 0.52765L76 158.074C76 158.585 75.5854 159 75.074 159C74.8094 159 74.5574 158.887 74.3817 158.689L10.0356 86.2456Z" fill="#B14AED"/>
<path d="M42.0111 86L40.2222 84.2111L46.0999 78.3333L40.2222 72.4556L42.0111 70.6667L49.6777 78.3333L42.0111 86Z" fill="white"/>
<circle cx="44.5" cy="78.5" r="18" stroke="white" stroke-width="3"/>
</svg>
